<mxfile host="app.diagrams.net" modified="2023-05-15T09:17:44.042Z" agent="5.0 (Windows NT 10.0; Win64; x64) AppleWebKit/537.36 (KHTML, like Gecko) Chrome/113.0.0.0 Safari/537.36" etag="M2OltZs26r3gnHGIIRD5" version="20.8.13" type="github">
  <diagram name="Page-1" id="97916047-d0de-89f5-080d-49f4d83e522f">
    <mxGraphModel dx="1434" dy="764" grid="1" gridSize="10" guides="1" tooltips="1" connect="1" arrows="1" fold="1" page="1" pageScale="1.5" pageWidth="1169" pageHeight="827" background="none" math="0" shadow="0">
      <root>
        <mxCell id="0" />
        <mxCell id="1" parent="0" />
        <mxCell id="rd1jwKxNQfUCZJT7JjjL-55" value="数字化实验室云平台" style="rounded=1;fillColor=#B2C9AB;strokeColor=none;shadow=1;fontStyle=1;fontColor=#46495D;fontSize=14;labelBackgroundColor=none;" vertex="1" parent="1">
          <mxGeometry x="150" y="220" width="200" height="60" as="geometry" />
        </mxCell>
        <mxCell id="rd1jwKxNQfUCZJT7JjjL-56" value="数字化实验室的构成" style="rounded=1;fillColor=#B2C9AB;strokeColor=none;shadow=1;fontStyle=1;fontColor=#46495D;fontSize=14;labelBackgroundColor=none;" vertex="1" parent="1">
          <mxGeometry x="430" y="120" width="200" height="60" as="geometry" />
        </mxCell>
        <mxCell id="rd1jwKxNQfUCZJT7JjjL-70" style="edgeStyle=orthogonalEdgeStyle;rounded=0;orthogonalLoop=1;jettySize=auto;html=1;entryX=0;entryY=0.5;entryDx=0;entryDy=0;strokeColor=#788AA3;fontColor=#46495D;fillColor=#B2C9AB;" edge="1" parent="1" source="rd1jwKxNQfUCZJT7JjjL-57" target="rd1jwKxNQfUCZJT7JjjL-63">
          <mxGeometry relative="1" as="geometry" />
        </mxCell>
        <mxCell id="rd1jwKxNQfUCZJT7JjjL-72" style="edgeStyle=orthogonalEdgeStyle;rounded=0;orthogonalLoop=1;jettySize=auto;html=1;entryX=0;entryY=0.5;entryDx=0;entryDy=0;strokeColor=#788AA3;fontColor=#46495D;fillColor=#B2C9AB;" edge="1" parent="1" source="rd1jwKxNQfUCZJT7JjjL-57" target="rd1jwKxNQfUCZJT7JjjL-62">
          <mxGeometry relative="1" as="geometry" />
        </mxCell>
        <mxCell id="rd1jwKxNQfUCZJT7JjjL-73" style="edgeStyle=orthogonalEdgeStyle;rounded=0;orthogonalLoop=1;jettySize=auto;html=1;entryX=0;entryY=0.5;entryDx=0;entryDy=0;strokeColor=#788AA3;fontColor=#46495D;fillColor=#B2C9AB;" edge="1" parent="1" source="rd1jwKxNQfUCZJT7JjjL-57" target="rd1jwKxNQfUCZJT7JjjL-64">
          <mxGeometry relative="1" as="geometry" />
        </mxCell>
        <mxCell id="rd1jwKxNQfUCZJT7JjjL-57" value="数字化实验室的应用" style="rounded=1;fillColor=#B2C9AB;strokeColor=#788AA3;shadow=1;fontStyle=1;fontSize=14;labelBackgroundColor=none;fontColor=#46495D;" vertex="1" parent="1">
          <mxGeometry x="430" y="220" width="200" height="60" as="geometry" />
        </mxCell>
        <mxCell id="rd1jwKxNQfUCZJT7JjjL-67" style="edgeStyle=orthogonalEdgeStyle;rounded=0;orthogonalLoop=1;jettySize=auto;html=1;entryX=0;entryY=0.5;entryDx=0;entryDy=0;strokeColor=#788AA3;fontColor=#46495D;fillColor=#B2C9AB;" edge="1" parent="1" source="rd1jwKxNQfUCZJT7JjjL-58" target="rd1jwKxNQfUCZJT7JjjL-65">
          <mxGeometry relative="1" as="geometry" />
        </mxCell>
        <mxCell id="rd1jwKxNQfUCZJT7JjjL-68" style="edgeStyle=orthogonalEdgeStyle;rounded=0;orthogonalLoop=1;jettySize=auto;html=1;entryX=0;entryY=0.5;entryDx=0;entryDy=0;strokeColor=#788AA3;fontColor=#46495D;fillColor=#B2C9AB;" edge="1" parent="1" source="rd1jwKxNQfUCZJT7JjjL-58" target="rd1jwKxNQfUCZJT7JjjL-66">
          <mxGeometry relative="1" as="geometry" />
        </mxCell>
        <mxCell id="rd1jwKxNQfUCZJT7JjjL-58" value="数字化实验室的评价" style="rounded=1;fillColor=#B2C9AB;strokeColor=none;shadow=1;fontStyle=1;fontColor=#46495D;fontSize=14;labelBackgroundColor=none;" vertex="1" parent="1">
          <mxGeometry x="430" y="360" width="200" height="60" as="geometry" />
        </mxCell>
        <mxCell id="rd1jwKxNQfUCZJT7JjjL-62" value="正在开课" style="rounded=1;fillColor=#B2C9AB;strokeColor=#788AA3;shadow=1;fontStyle=1;fontSize=14;labelBackgroundColor=none;fontColor=#46495D;" vertex="1" parent="1">
          <mxGeometry x="677" y="230" width="103" height="40" as="geometry" />
        </mxCell>
        <mxCell id="rd1jwKxNQfUCZJT7JjjL-63" value="历史记录" style="rounded=1;fillColor=#B2C9AB;strokeColor=#788AA3;shadow=1;fontStyle=1;fontSize=14;labelBackgroundColor=none;fontColor=#46495D;" vertex="1" parent="1">
          <mxGeometry x="677" y="180" width="103" height="40" as="geometry" />
        </mxCell>
        <mxCell id="rd1jwKxNQfUCZJT7JjjL-64" value="课程计划" style="rounded=1;fillColor=#B2C9AB;strokeColor=#788AA3;shadow=1;fontStyle=1;fontSize=14;labelBackgroundColor=none;fontColor=#46495D;" vertex="1" parent="1">
          <mxGeometry x="677" y="280" width="103" height="40" as="geometry" />
        </mxCell>
        <mxCell id="rd1jwKxNQfUCZJT7JjjL-65" value="历史数据" style="rounded=1;fillColor=#B2C9AB;strokeColor=#788AA3;shadow=1;fontStyle=1;fontSize=14;labelBackgroundColor=none;fontColor=#46495D;" vertex="1" parent="1">
          <mxGeometry x="680" y="340" width="103" height="40" as="geometry" />
        </mxCell>
        <mxCell id="rd1jwKxNQfUCZJT7JjjL-66" value="评价标准" style="rounded=1;fillColor=#B2C9AB;strokeColor=#788AA3;shadow=1;fontStyle=1;fontSize=14;labelBackgroundColor=none;fontColor=#46495D;" vertex="1" parent="1">
          <mxGeometry x="680" y="390" width="103" height="40" as="geometry" />
        </mxCell>
        <mxCell id="rd1jwKxNQfUCZJT7JjjL-78" value="" style="edgeStyle=orthogonalEdgeStyle;rounded=0;orthogonalLoop=1;jettySize=auto;html=1;strokeColor=#788AA3;fontColor=#46495D;fillColor=#B2C9AB;" edge="1" parent="1" source="rd1jwKxNQfUCZJT7JjjL-74">
          <mxGeometry relative="1" as="geometry">
            <mxPoint x="1007" y="155" as="targetPoint" />
          </mxGeometry>
        </mxCell>
        <mxCell id="rd1jwKxNQfUCZJT7JjjL-74" value="综合查询" style="whiteSpace=wrap;html=1;fontSize=14;fillColor=#B2C9AB;strokeColor=#788AA3;fontColor=#46495D;rounded=1;shadow=1;fontStyle=1;labelBackgroundColor=none;" vertex="1" parent="1">
          <mxGeometry x="827" y="140" width="100" height="30" as="geometry" />
        </mxCell>
        <mxCell id="rd1jwKxNQfUCZJT7JjjL-75" value="全县统计" style="whiteSpace=wrap;html=1;fontSize=14;fillColor=#B2C9AB;strokeColor=#788AA3;fontColor=#46495D;rounded=1;shadow=1;fontStyle=1;labelBackgroundColor=none;" vertex="1" parent="1">
          <mxGeometry x="827" y="200" width="100" height="30" as="geometry" />
        </mxCell>
        <mxCell id="rd1jwKxNQfUCZJT7JjjL-79" value="&#xa;分区、分校、分室、分学科、分年度、&#xa;分年级、分教师、分实验、分设备" style="text;strokeColor=none;fillColor=none;align=left;verticalAlign=middle;whiteSpace=wrap;rounded=0;fontColor=#46495D;labelBackgroundColor=none;labelBorderColor=none;fontSize=16;" vertex="1" parent="1">
          <mxGeometry x="1010" y="115" width="430" height="70" as="geometry" />
        </mxCell>
        <mxCell id="rd1jwKxNQfUCZJT7JjjL-80" value="&#xa;分区、分校、分室、分学科、分年度、&#xa;分年级、分教师、分实验、分设备" style="text;strokeColor=none;fillColor=none;align=left;verticalAlign=middle;whiteSpace=wrap;rounded=0;fontColor=#46495D;labelBackgroundColor=none;labelBorderColor=none;fontSize=16;" vertex="1" parent="1">
          <mxGeometry x="1010" y="200" width="430" height="70" as="geometry" />
        </mxCell>
      </root>
    </mxGraphModel>
  </diagram>
</mxfile>
